<svg xmlns="http://www.w3.org/2000/svg" xmlns:xlink="http://www.w3.org/1999/xlink"><symbol id="sprite">
  <symbol viewBox="0 0 86 12" id="logotype-header-desktop">
    <path style=" stroke:none;fill-rule:nonzero;fill:rgb(100%,100%,100%);fill-opacity:1;" d="M 4.886719 16.183594 C 4.039062 16.183594 3.300781 16.050781 2.679688 15.792969 C 2.054688 15.53125 1.578125 15.074219 1.246094 14.414062 C 0.9375 13.753906 0.78125 12.828125 0.78125 11.632812 L 0.78125 10.746094 C 1.195312 10.746094 1.621094 10.746094 2.054688 10.746094 C 2.488281 10.746094 2.910156 10.746094 3.328125 10.746094 L 3.328125 11.839844 C 3.328125 12.566406 3.398438 13.132812 3.535156 13.53125 C 3.675781 13.929688 3.867188 14.207031 4.109375 14.363281 C 4.351562 14.5 4.628906 14.570312 4.941406 14.570312 C 5.441406 14.570312 5.839844 14.40625 6.136719 14.074219 C 6.449219 13.730469 6.605469 13.089844 6.605469 12.152344 C 6.605469 11.457031 6.5 10.9375 6.292969 10.59375 C 6.085938 10.246094 5.753906 9.96875 5.304688 9.761719 C 4.871094 9.535156 4.308594 9.285156 3.613281 9.007812 C 3.042969 8.746094 2.546875 8.441406 2.132812 8.097656 C 1.714844 7.75 1.402344 7.308594 1.195312 6.769531 C 0.988281 6.234375 0.882812 5.566406 0.882812 4.769531 C 0.882812 3.796875 1.003906 3.007812 1.246094 2.402344 C 1.507812 1.777344 1.941406 1.328125 2.546875 1.050781 C 3.15625 0.753906 3.96875 0.609375 4.992188 0.609375 C 6.308594 0.609375 7.316406 0.910156 8.007812 1.519531 C 8.703125 2.105469 9.046875 2.972656 9.046875 4.117188 L 9.046875 5.910156 C 8.648438 5.910156 8.242188 5.910156 7.824219 5.910156 C 7.425781 5.910156 7.019531 5.910156 6.605469 5.910156 L 6.605469 4.847656 C 6.605469 4.046875 6.472656 3.476562 6.214844 3.128906 C 5.972656 2.765625 5.574219 2.585938 5.019531 2.585938 C 4.445312 2.585938 4.03125 2.757812 3.769531 3.105469 C 3.527344 3.433594 3.40625 3.960938 3.40625 4.691406 C 3.40625 5.3125 3.527344 5.800781 3.769531 6.144531 C 4.011719 6.476562 4.324219 6.734375 4.707031 6.925781 C 5.105469 7.117188 5.511719 7.289062 5.929688 7.445312 C 6.707031 7.742188 7.339844 8.042969 7.824219 8.355469 C 8.3125 8.667969 8.667969 9.085938 8.890625 9.605469 C 9.117188 10.125 9.230469 10.859375 9.230469 11.8125 C 9.230469 12.90625 9.046875 13.773438 8.683594 14.414062 C 8.335938 15.039062 7.835938 15.488281 7.175781 15.765625 C 6.535156 16.042969 5.773438 16.183594 4.886719 16.183594 Z M 15.828125 16.3125 C 15.238281 16.3125 14.691406 16.269531 14.191406 16.183594 C 13.6875 16.09375 13.253906 15.921875 12.890625 15.660156 C 12.527344 15.402344 12.242188 15.011719 12.03125 14.492188 C 11.824219 13.972656 11.71875 13.269531 11.71875 12.386719 L 11.71875 0.632812 L 14.214844 0.632812 L 14.214844 13.035156 C 14.214844 13.503906 14.285156 13.867188 14.425781 14.128906 C 14.582031 14.371094 14.78125 14.535156 15.023438 14.621094 C 15.265625 14.707031 15.535156 14.753906 15.828125 14.753906 C 16.125 14.753906 16.390625 14.707031 16.632812 14.621094 C 16.878906 14.535156 17.066406 14.371094 17.207031 14.128906 C 17.363281 13.867188 17.441406 13.503906 17.441406 13.035156 L 17.441406 0.632812 L 19.910156 0.632812 L 19.910156 12.359375 C 19.910156 13.242188 19.804688 13.953125 19.597656 14.492188 C 19.40625 15.011719 19.128906 15.402344 18.765625 15.660156 C 18.402344 15.921875 17.96875 16.09375 17.464844 16.183594 C 16.964844 16.269531 16.417969 16.3125 15.828125 16.3125 Z M 22.984375 16 L 22.984375 0.632812 L 28.183594 0.632812 C 29.152344 0.632812 29.898438 0.851562 30.417969 1.285156 C 30.9375 1.71875 31.199219 2.359375 31.199219 3.207031 L 31.199219 5.9375 C 31.199219 6.597656 31.113281 7.210938 30.9375 7.785156 C 30.78125 8.339844 30.46875 8.789062 30.003906 9.136719 C 29.550781 9.484375 28.894531 9.65625 28.027344 9.65625 L 25.582031 9.65625 L 25.582031 16 Z M 25.582031 8.253906 L 27.167969 8.253906 C 27.6875 8.253906 28.078125 8.050781 28.339844 7.652344 C 28.597656 7.238281 28.730469 6.570312 28.730469 5.652344 L 28.730469 4.273438 C 28.730469 3.460938 28.617188 2.878906 28.390625 2.53125 C 28.164062 2.183594 27.851562 2.011719 27.453125 2.011719 L 25.582031 2.011719 Z M 33.660156 16 L 33.660156 0.632812 L 40.574219 0.632812 L 40.574219 2.402344 L 36.257812 2.402344 L 36.257812 7.054688 L 39.820312 7.054688 L 39.820312 9.007812 L 36.257812 9.007812 L 36.257812 14.285156 L 40.574219 14.285156 L 40.574219 16 Z M 42.9375 16 L 42.9375 0.632812 L 48.242188 0.632812 C 49.214844 0.632812 49.957031 0.851562 50.480469 1.285156 C 51.015625 1.71875 51.285156 2.359375 51.285156 3.207031 L 51.285156 5.652344 C 51.285156 6.5 51.050781 7.195312 50.582031 7.730469 C 50.113281 8.253906 49.421875 8.539062 48.503906 8.589844 C 49.09375 8.640625 49.507812 8.832031 49.75 9.160156 C 50.011719 9.492188 50.246094 10.003906 50.453125 10.695312 L 51.933594 16 L 49.179688 16 L 47.957031 10.878906 C 47.835938 10.445312 47.695312 10.0625 47.539062 9.734375 C 47.382812 9.40625 47.132812 9.238281 46.785156 9.238281 L 45.511719 9.238281 L 45.511719 16 Z M 45.511719 7.496094 L 47.175781 7.496094 C 47.785156 7.496094 48.207031 7.34375 48.449219 7.03125 C 48.710938 6.71875 48.839844 6.242188 48.839844 5.601562 L 48.839844 3.648438 C 48.839844 3.078125 48.71875 2.660156 48.476562 2.402344 C 48.25 2.140625 47.894531 2.011719 47.410156 2.011719 L 45.511719 2.011719 Z M 57.5 16.285156 C 56.910156 16.285156 56.355469 16.191406 55.835938 16 C 55.3125 15.828125 54.890625 15.472656 54.558594 14.933594 C 54.25 14.378906 54.09375 13.554688 54.09375 12.464844 L 54.09375 3.882812 C 54.09375 2.949219 54.265625 2.238281 54.613281 1.753906 C 54.960938 1.25 55.445312 0.910156 56.070312 0.738281 C 56.691406 0.546875 57.410156 0.453125 58.226562 0.453125 C 59.042969 0.453125 59.761719 0.546875 60.382812 0.738281 C 61.007812 0.929688 61.492188 1.273438 61.839844 1.777344 C 62.203125 2.261719 62.386719 2.964844 62.386719 3.882812 L 62.386719 5.964844 L 59.96875 5.964844 L 59.96875 3.78125 C 59.96875 3.261719 59.890625 2.871094 59.734375 2.609375 C 59.59375 2.351562 59.394531 2.175781 59.136719 2.089844 C 58.894531 2.003906 58.597656 1.960938 58.253906 1.960938 C 57.941406 1.960938 57.65625 2.003906 57.394531 2.089844 C 57.132812 2.175781 56.925781 2.351562 56.769531 2.609375 C 56.632812 2.871094 56.5625 3.261719 56.5625 3.78125 L 56.5625 13.011719 C 56.5625 13.53125 56.632812 13.921875 56.769531 14.179688 C 56.925781 14.441406 57.132812 14.613281 57.394531 14.699219 C 57.65625 14.785156 57.941406 14.828125 58.253906 14.828125 C 58.753906 14.828125 59.164062 14.683594 59.472656 14.386719 C 59.804688 14.074219 59.96875 13.617188 59.96875 13.011719 L 59.96875 9.890625 L 58.433594 9.890625 L 58.433594 8.460938 L 62.386719 8.460938 L 62.386719 16 L 60.515625 16 L 60.382812 14.699219 C 60.351562 14.769531 60.304688 14.847656 60.253906 14.933594 C 60.203125 15.003906 60.160156 15.0625 60.125 15.117188 C 59.917969 15.429688 59.605469 15.707031 59.1875 15.949219 C 58.789062 16.171875 58.226562 16.285156 57.5 16.285156 Z M 67.101562 16 L 67.101562 9.394531 L 64.242188 0.632812 L 66.710938 0.632812 L 68.324219 5.886719 L 68.453125 6.691406 L 68.609375 5.886719 L 70.300781 0.632812 L 72.613281 0.632812 L 69.597656 9.527344 L 69.597656 16 Z M 74.714844 16 L 74.714844 0.632812 L 77.78125 0.632812 L 80.355469 11.554688 L 82.957031 0.632812 L 85.996094 0.632812 L 85.996094 16 L 83.789062 16 L 83.789062 4.144531 L 81.214844 16 L 79.496094 16 L 76.921875 4.144531 L 76.921875 16 Z M 74.714844 16 "/>
  </symbol>
  <!-- <symbol viewBox="0 0 122 44" id="logotype-header-desktop">
    <path fill="#fff" d="M5.768 22.252c-1.176 0-2.196-.18-3.06-.54-.864-.36-1.524-.996-1.98-1.908-.432-.912-.648-2.196-.648-3.852v-1.224h3.528v1.512c0 1.008.096 1.788.288 2.34.192.552.456.936.792 1.152.336.192.72.288 1.152.288.696 0 1.248-.228 1.656-.684.432-.48.648-1.368.648-2.664 0-.96-.144-1.68-.432-2.16-.288-.48-.744-.864-1.368-1.152-.6-.312-1.38-.66-2.34-1.044a9.005 9.005 0 0 1-2.052-1.26A4.416 4.416 0 0 1 .656 9.22C.368 8.476.224 7.552.224 6.448c0-1.344.168-2.436.504-3.276a3.44 3.44 0 0 1 1.8-1.872C3.368.892 4.496.688 5.912.688c1.824 0 3.216.42 4.176 1.26.96.816 1.44 2.016 1.44 3.6v2.484H8.144V6.556c0-1.104-.18-1.896-.54-2.376-.336-.504-.888-.756-1.656-.756-.792 0-1.368.24-1.728.72-.336.456-.504 1.188-.504 2.196 0 .864.168 1.536.504 2.016.336.456.768.816 1.296 1.08.552.264 1.116.504 1.692.72 1.08.408 1.956.828 2.628 1.26a3.822 3.822 0 0 1 1.476 1.728c.312.72.468 1.74.468 3.06 0 1.512-.252 2.712-.756 3.6a4.18 4.18 0 0 1-2.088 1.872c-.888.384-1.944.576-3.168.576Zm15.148.18c-.816 0-1.572-.06-2.268-.18-.696-.12-1.296-.36-1.8-.72s-.9-.9-1.188-1.62c-.288-.72-.432-1.692-.432-2.916V.724h3.456v17.172c0 .648.096 1.152.288 1.512.216.336.492.564.828.684.336.12.708.18 1.116.18.408 0 .78-.06 1.116-.18.336-.12.6-.348.792-.684.216-.36.324-.864.324-1.512V.724h3.42V16.96c0 1.224-.144 2.208-.432 2.952-.264.72-.648 1.26-1.152 1.62-.504.36-1.104.6-1.8.72s-1.452.18-2.268.18ZM30.822 22V.724h7.2c1.344 0 2.376.3 3.096.9.72.6 1.08 1.488 1.08 2.664v3.78c0 .912-.12 1.764-.36 2.556a3.426 3.426 0 0 1-1.296 1.872c-.624.48-1.536.72-2.736.72h-3.384V22h-3.6Zm3.6-10.728h2.196c.72 0 1.26-.276 1.62-.828.36-.576.54-1.5.54-2.772V5.764c0-1.128-.156-1.932-.468-2.412-.312-.48-.744-.72-1.296-.72h-2.592v8.64ZM45.605 22V.724h9.576v2.448h-5.976v6.444h4.931v2.7h-4.931v7.308h5.976V22h-9.576Zm12.848 0V.724h7.344c1.344 0 2.376.3 3.096.9.744.6 1.116 1.488 1.116 2.664v3.384c0 1.176-.324 2.136-.972 2.88-.648.72-1.608 1.116-2.88 1.188.816.072 1.392.336 1.728.792.36.456.684 1.164.972 2.124L70.91 22h-3.816l-1.692-7.092a10.03 10.03 0 0 0-.576-1.584c-.216-.456-.564-.684-1.044-.684h-1.764V22h-3.564Zm3.564-11.772h2.304c.84 0 1.428-.216 1.764-.648.36-.432.54-1.092.54-1.98V4.9c0-.792-.168-1.368-.504-1.728-.312-.36-.804-.54-1.476-.54h-2.628v7.596Zm16.596 12.168A6.64 6.64 0 0 1 76.31 22c-.72-.24-1.308-.732-1.764-1.476-.432-.768-.648-1.908-.648-3.42V5.224c0-1.296.24-2.28.72-2.952.48-.696 1.152-1.164 2.016-1.404.864-.264 1.86-.396 2.988-.396s2.124.132 2.988.396c.864.264 1.536.744 2.016 1.44.504.672.756 1.644.756 2.916v2.88h-3.348V5.08c0-.72-.108-1.26-.324-1.62-.192-.36-.468-.6-.828-.72-.336-.12-.744-.18-1.224-.18-.432 0-.828.06-1.188.18s-.648.36-.864.72c-.192.36-.288.9-.288 1.62v12.78c0 .72.096 1.26.288 1.62.216.36.504.6.864.72s.756.18 1.188.18c.696 0 1.26-.204 1.692-.612.456-.432.684-1.068.684-1.908v-4.32H79.91v-1.98h5.472V22H82.79l-.18-1.8a4.891 4.891 0 0 1-.18.324c-.072.096-.132.18-.18.252-.288.432-.72.816-1.296 1.152-.552.312-1.332.468-2.34.468ZM91.911 22v-9.144L87.951.724h3.42l2.232 7.272.18 1.116L94 7.996 96.34.724h3.204l-4.176 12.312V22h-3.456Zm10.538 0V.724h4.248l3.564 15.12 3.6-15.12h4.212V22h-3.06V5.584L111.449 22h-2.376l-3.564-16.416V22h-3.06Z"/>
  </symbol> -->
  <symbol viewBox="0 0 25 25" id="ok-icon">
    <path d="M12.5 0C5.597 0 0 5.597 0 12.5S5.597 25 12.5 25 25 19.403 25 12.5 19.403 0 12.5 0Z"/>
    <path fill="#030A1A" d="M12.68 6.889c.899 0 1.63.754 1.63 1.682 0 .924-.731 1.679-1.63 1.679-.898 0-1.629-.755-1.629-1.68 0-.927.73-1.681 1.63-1.681Zm0 5.74c2.17 0 3.935-1.82 3.935-4.058 0-2.24-1.764-4.062-3.935-4.062-2.17 0-3.932 1.821-3.932 4.062 0 2.237 1.762 4.059 3.932 4.059Zm1.592 3.314a7.29 7.29 0 0 0 2.284-.978c.538-.349.7-1.083.362-1.64a1.13 1.13 0 0 0-1.59-.374 4.866 4.866 0 0 1-5.297 0 1.127 1.127 0 0 0-1.589.374 1.213 1.213 0 0 0 .363 1.64 7.29 7.29 0 0 0 2.284.978l-2.2 2.269a1.218 1.218 0 0 0 0 1.682c.227.231.52.349.814.349.295 0 .59-.118.818-.35l2.16-2.229 2.162 2.23c.449.466 1.177.466 1.629 0 .45-.464.45-1.218 0-1.682l-2.2-2.269Z"/>
  </symbol>
  <symbol viewBox="0 0 25 25" id="vk-icon">
    <path d="M12.5 0C5.597 0 0 5.597 0 12.5S5.597 25 12.5 25 25 19.403 25 12.5 19.403 0 12.5 0Z"/>
    <path fill="#030A1A" d="M13.723 15.052c.442-.143 1.01.944 1.612 1.36.453.316.8.248.8.248l1.608-.023s.84-.052.444-.72c-.033-.055-.233-.495-1.198-1.4-1.008-.945-.87-.792.343-2.427.74-.997 1.035-1.606.942-1.866-.088-.25-.632-.184-.632-.184l-1.811.012c-.177 0-.326.055-.394.239-.002.002-.288.771-.67 1.425-.806 1.385-1.128 1.458-1.261 1.372-.306-.201-.229-.805-.229-1.234 0-1.341.2-1.9-.391-2.045-.198-.049-.343-.08-.847-.085-.644-.01-1.192 0-1.502.153-.206.103-.364.33-.268.342.12.017.39.074.535.272.185.255.18.828.18.828s.106 1.58-.25 1.775c-.245.135-.58-.14-1.298-1.396-.367-.643-.645-1.353-.645-1.353s-.053-.132-.15-.204c-.117-.086-.279-.113-.279-.113l-1.72.01s-.258.008-.353.122c-.084.101-.007.31-.007.31s1.347 3.186 2.873 4.79c1.398 1.474 2.987 1.376 2.987 1.376h.72s.217-.025.329-.144c.103-.111.099-.32.099-.32s-.015-.977.433-1.12Z"/>
  </symbol>
  <symbol viewBox="0 0 25 25" id="reddit-icon">
    <path d="M12.5 0C5.597 0 0 5.597 0 12.5S5.597 25 12.5 25 25 19.403 25 12.5 19.403 0 12.5 0Z"/>
    <path fill="#030A1A" d="M13.85 5.556c-.444 0-.862.226-1.13.551-.269.326-.416.723-.524 1.142-.17.673-.224 1.42-.236 2.093a7.317 7.317 0 0 0-3.327 1.027c-.382-.32-.842-.5-1.283-.494-.503.004-.98.22-1.334.665-.678.85-.6 2.238.185 3.064a4.173 4.173 0 0 0-.084.78c0 2.796 2.858 5.06 6.383 5.06s6.383-2.266 6.383-5.06c0-.264-.036-.526-.084-.78.785-.826.863-2.214.185-3.064a1.697 1.697 0 0 0-1.334-.665c-.44-.005-.901.173-1.283.494a7.313 7.313 0 0 0-3.31-1.027c.017-.62.061-1.265.186-1.75.078-.305.171-.526.27-.647.1-.122.171-.172.338-.172.36 0 .407.117.625.4.11.143.236.32.439.495.202.173.502.323.827.323V6.773c-.09 0-.108-.002-.169-.057-.06-.054-.145-.18-.27-.342-.249-.326-.732-.818-1.452-.818Zm3.513.114c-.84 0-1.52.766-1.52 1.712 0 .947.68 1.712 1.52 1.712s1.52-.765 1.52-1.712c0-.946-.68-1.712-1.52-1.712Zm0 .609c.54 0 .98.494.98 1.103s-.44 1.104-.98 1.104-.98-.495-.98-1.104c0-.609.44-1.103.98-1.103ZM12.5 10.293c2.991 0 5.522 1.877 5.522 4.09 0 2.217-2.531 4.091-5.522 4.091s-5.522-1.874-5.522-4.09c0-2.215 2.531-4.09 5.522-4.09Zm-5.133.552c.15.002.306.04.455.114a4.986 4.986 0 0 0-1.266 1.598c-.203-.47-.148-1.058.101-1.37a.877.877 0 0 1 .71-.342Zm10.266 0a.877.877 0 0 1 .71.342c.249.312.304.9.1 1.37a4.984 4.984 0 0 0-1.266-1.598c.15-.074.306-.112.456-.114Zm-7.294 1.522c-.54 0-.98.495-.98 1.103 0 .61.44 1.104.98 1.104s.979-.495.979-1.104c0-.608-.44-1.103-.98-1.103Zm4.322 0c-.54 0-.979.495-.979 1.103 0 .61.44 1.104.98 1.104s.979-.495.979-1.104c0-.608-.44-1.103-.98-1.103Zm-4.846 3.748c.344.802 1.408 1.58 2.685 1.58 1.277 0 2.358-.779 2.702-1.58-.625.454-1.61.761-2.702.761-1.091 0-2.06-.307-2.685-.761Z"/>
  </symbol>
  <symbol viewBox="0 0 30 42" id="rouble-icon">
    <path fill-rule="evenodd" clip-rule="evenodd" d="M0 17H6V23H0V17Z" fill="#102654"/>
    <path fill-rule="evenodd" clip-rule="evenodd" d="M3.65854 28.3214V18H9.65854V28.3214H21V34.3214H9.65854V42H3.65854V34.3214H0V28.3214H3.65854Z" fill="#102654"/>
    <path fill-rule="evenodd" clip-rule="evenodd" d="M18.5 6H10V17H18.5C21.5376 17 24 14.5376 24 11.5C24 8.46243 21.5376 6 18.5 6ZM4 0V23H18.5C24.8513 23 30 17.8513 30 11.5C30 5.14873 24.8513 0 18.5 0H4Z" fill="#102654"/>
  </symbol>
</symbol></svg>